<?xml version="1.0" encoding="utf-8"?>
<!-- Generator: Adobe Illustrator 21.1.0, SVG Export Plug-In . SVG Version: 6.00 Build 0)  -->
<svg version="1.1" id="Layer_1" xmlns="http://www.w3.org/2000/svg" xmlns:xlink="http://www.w3.org/1999/xlink" x="0px" y="0px"
	 viewBox="0 0 63 63" style="enable-background:new 0 0 63 63;" xml:space="preserve">
<style type="text/css">
	.st0{fill:#808080;}
	.st1{fill:#333333;}
</style>
<path class="st0" d="M31.5,47.3c-0.8,0-1.6-0.7-1.6-1.6c0-0.9,0.7-1.6,1.6-1.6c0.8,0,1.6,0.7,1.6,1.6C33.1,46.6,32.3,47.3,31.5,47.3
	z"/>
<path class="st0" d="M29.9,17.8c0,0.8,0.7,1.6,1.6,1.6c0.8,0,1.6-0.7,1.6-1.6c0-0.8-0.7-1.6-1.6-1.6C30.7,16.2,29.9,16.9,29.9,17.8z
	"/>
<path class="st0" d="M43.8,31.9c0,0.8,0.7,1.6,1.6,1.6c0.8,0,1.6-0.7,1.6-1.6s-0.7-1.6-1.6-1.6C44.6,30.3,43.8,31.1,43.8,31.9z"/>
<path class="st0" d="M15.7,31.9c0,0.8,0.7,1.6,1.6,1.6c0.8,0,1.6-0.7,1.6-1.6s-0.8-1.6-1.6-1.6C16.5,30.3,15.7,31.1,15.7,31.9z"/>
<path class="st0" d="M40.4,40.4c-0.6,0.6-0.6,1.6,0,2.3c0.3,0.3,0.8,0.5,1.1,0.5c0.4,0,0.8-0.2,1.1-0.5c0.6-0.6,0.6-1.6,0-2.3
	C42,39.8,41,39.8,40.4,40.4z"/>
<path class="st0" d="M21.8,23.4c0.4,0,0.8-0.2,1.1-0.5c0.6-0.6,0.6-1.6,0-2.3c-0.6-0.6-1.6-0.6-2.3,0c-0.6,0.6-0.6,1.6,0,2.3
	C20.9,23.2,21.3,23.4,21.8,23.4z"/>
<path class="st1" d="M38.3,27.6c0.8,1.3,1.3,2.8,1.3,4.4c0,4.5-3.6,8.1-8.1,8.1s-8.1-3.6-8.1-8.1c0-4.5,3.6-8.1,8.1-8.1
	c1.7,0,3.3,0.5,4.5,1.4l8.8-8.8c-1.3-2.2-0.9-5,0.9-7c2.3-2.3,6-2.3,8.2,0s2.3,6,0,8.2c-1.1,1.1-2.6,1.7-4.1,1.7
	c-1,0-1.9-0.3-2.9-0.8L38.3,27.6z"/>
<path class="st0" d="M48.1,15.5c1,1,2.7,1,3.7,0c1-1,1-2.7,0-3.7c-0.5-0.5-1.2-0.8-1.8-0.8c-0.7,0-1.3,0.3-1.8,0.8
	C47,12.9,47,14.5,48.1,15.5z"/>
<circle class="st0" cx="31.5" cy="31.9" r="4.9"/>
<path class="st0" d="M20.7,40.7c-0.6,0.6-0.6,1.6,0,2.3c0.3,0.3,0.8,0.5,1.1,0.5c0.4,0,0.8-0.2,1.1-0.5c0.6-0.6,0.6-1.6,0-2.3
	C22.3,40.1,21.3,40.1,20.7,40.7z"/>
<path class="st1" d="M37.3,57.2c0,3.2-2.6,5.8-5.8,5.8s-5.8-2.6-5.8-5.8s2.6-5.8,5.8-5.8S37.3,53.9,37.3,57.2z"/>
<path class="st0" d="M34.1,57.2c0-1.4-1.2-2.6-2.6-2.6c-1.4,0-2.6,1.2-2.6,2.6c0,1.4,1.2,2.6,2.6,2.6C32.9,59.8,34.1,58.6,34.1,57.2
	z"/>
<path class="st1" d="M25.7,5.8c0-3.2,2.6-5.8,5.8-5.8s5.8,2.6,5.8,5.8c0,3.2-2.6,5.8-5.8,5.8S25.7,9.1,25.7,5.8z"/>
<path class="st0" d="M28.9,5.8c0,1.4,1.2,2.6,2.6,2.6c1.4,0,2.6-1.2,2.6-2.6c0-1.4-1.2-2.6-2.6-2.6C30.1,3.2,28.9,4.4,28.9,5.8z"/>
<path class="st1" d="M63,31.9c0,3.2-2.6,5.8-5.8,5.8c-3.2,0-5.8-2.6-5.8-5.8c0-3.2,2.6-5.8,5.8-5.8C60.4,26.1,63,28.7,63,31.9z"/>
<path class="st0" d="M59.8,31.9c0-1.4-1.2-2.6-2.6-2.6s-2.6,1.2-2.6,2.6s1.2,2.6,2.6,2.6C58.6,34.6,59.8,33.4,59.8,31.9z"/>
<path class="st1" d="M5.8,37.8C2.6,37.8,0,35.2,0,32c0-3.2,2.6-5.8,5.8-5.8c3.2,0,5.8,2.6,5.8,5.8C11.7,35.1,9.1,37.8,5.8,37.8z"/>
<path class="st0" d="M8.5,31.9c0-1.4-1.2-2.6-2.6-2.6c-1.4,0-2.6,1.2-2.6,2.6s1.2,2.6,2.6,2.6C7.3,34.6,8.5,33.4,8.5,31.9z"/>
<path class="st1" d="M53.8,45.5c2.3,2.3,2.3,6,0,8.2c-1.1,1.1-2.6,1.7-4.1,1.7c-1.5,0-2.9-0.6-4.1-1.7l0,0c-2.3-2.3-2.3-6,0-8.2
	C47.8,43.3,51.5,43.3,53.8,45.5z"/>
<path class="st0" d="M51.5,47.8c-1-1-2.7-1-3.7,0c-1,1-1,2.7,0,3.7c1,1,2.7,1,3.7,0C52.5,50.5,52.5,48.8,51.5,47.8z"/>
<path class="st1" d="M9.2,17.5c-2.3-2.3-2.3-6,0-8.2s6-2.3,8.2,0s2.3,6,0,8.2c-1.1,1.1-2.6,1.7-4.1,1.7
	C11.8,19.2,10.4,18.6,9.2,17.5z"/>
<path class="st0" d="M11.5,15.2c1,1,2.7,1,3.7,0c1-1,1-2.7,0-3.7c-0.5-0.5-1.2-0.8-1.8-0.8c-0.7,0-1.3,0.3-1.8,0.8
	C10.5,12.5,10.5,14.2,11.5,15.2z"/>
<path class="st1" d="M17.8,45.9c2.3,2.3,2.3,6,0,8.2c-1.1,1.1-2.6,1.7-4.1,1.7c-1.5,0-2.9-0.6-4.1-1.7c-2.3-2.3-2.3-6,0-8.2
	C11.8,43.6,15.5,43.6,17.8,45.9z"/>
<path class="st0" d="M15.5,48.1c-0.5-0.5-1.2-0.8-1.8-0.8c-0.7,0-1.3,0.3-1.8,0.8c-1,1-1,2.7,0,3.7c1,1,2.7,1,3.7,0
	C16.5,50.8,16.5,49.1,15.5,48.1z"/>
</svg>
