<?xml version="1.0" encoding="utf-8"?>
<!-- Generator: Adobe Illustrator 21.1.0, SVG Export Plug-In . SVG Version: 6.00 Build 0)  -->
<svg version="1.1" id="Layer_1" xmlns="http://www.w3.org/2000/svg" xmlns:xlink="http://www.w3.org/1999/xlink" x="0px" y="0px"
	 viewBox="0 0 71 59" style="enable-background:new 0 0 71 59;" xml:space="preserve">
<style type="text/css">
	.st0{fill:#333333;}
	.st1{fill:#999999;}
</style>
<g>
	<g>
		<g>
			<path class="st0" d="M37.4,39.7c-0.5,0.3-1,0.7-1.4,1c1.1,0.6,2.1,1.3,3.2,1.8c0.2-0.2,0.5-0.3,0.7-0.5
				c7.2-5.3,13.1-11.6,16.3-17.9c0.3-0.6,0.6-1.1,0.8-1.7c-0.7-1.6-1.6-3.2-2.7-4.6c-0.4,1.8-1.2,3.8-2.2,5.8
				C49.1,29.3,43.9,35,37.4,39.7z"/>
			<path class="st0" d="M13.6,17.3c0.3,0.8,0.7,1.6,1.1,2.4c3.3,6.2,9.1,12.6,16.3,17.9c0.1,0.1,0.2,0.2,0.4,0.3
				c1-0.6,2-1.3,3.1-2.1c10-7.3,16.1-17.1,14.8-23C45,9.4,39.6,7.4,33.8,7.4C25.6,7.4,18.3,11.3,13.6,17.3z"/>
			<path class="st0" d="M59.4,33.2c0-0.9,0-1.8-0.1-2.6c-3.5,5.2-8.4,10.2-14.2,14.7c3.4,1.3,6.8,2.2,9.8,2.5
				C57.7,43.7,59.4,38.6,59.4,33.2z"/>
			<path class="st0" d="M39.6,49.2c-5.4,3.5-10.9,6.1-16.1,7.6c3.2,1.4,6.7,2.2,10.3,2.2c6.2,0,12-2.3,16.4-6
				C46.8,52.2,43.2,50.9,39.6,49.2z"/>
			<path class="st0" d="M10.1,23.4c-1.2,3-1.9,6.3-1.9,9.8c0,3.7,0.8,7.2,2.2,10.4c1.1,0.3,2.3,0.4,3.3,0.4c3.6,0,7.9-1.1,12.3-3.2
				C19.2,35.5,13.6,29.5,10.1,23.4z"/>
			<path class="st0" d="M30.5,44.1c-5.9,3.2-11.9,5-16.9,5.1c0.9,1.1,1.8,2.1,2.9,3.1c5.3-0.6,11.3-2.8,17.2-6.2
				C32.7,45.4,31.6,44.8,30.5,44.1z"/>
		</g>
		<g>
			<path class="st1" d="M46,5c5.5-0.4,10,0.9,12.3,4.1c5.4,7.6-2.5,22.7-17.8,33.8s-32,14-37.5,6.4c-2.3-3.3-2.2-7.9,0-13.1
				c-3.4,6.6-4.1,12.6-1.2,16.7c5.9,8.2,24.1,5,40.8-7.2S68,17.2,62.1,9C59.2,5,53.3,3.7,46,5z"/>
			<path class="st1" d="M25,0.5C19.4,0,15,1.3,12.7,4.6c-5.4,7.6,2.5,22.7,17.8,33.8s32,14,37.5,6.4c2.3-3.3,2.2-7.9,0-13.1
				c3.4,6.6,4.1,12.6,1.2,16.7c-5.9,8.2-24.1,5-40.8-7.2S3,12.7,8.9,4.5C11.8,0.5,17.7-0.8,25,0.5z"/>
			<path class="st1" d="M39.5,6.5c4.4-0.3,7.9,0.7,9.7,3.3c4.3,6-2,18-14.1,26.8S9.8,47.7,5.5,41.7c-1.9-2.6-1.7-6.3,0-10.4
				c-2.7,5.2-3.3,10-1,13.2c4.6,6.5,19.1,3.9,32.3-5.7S56.9,16.2,52.2,9.8C50,6.6,45.2,5.6,39.5,6.5z"/>
		</g>
	</g>
</g>
</svg>
