<?xml version="1.0" encoding="utf-8"?>
<!-- Generator: Adobe Illustrator 21.1.0, SVG Export Plug-In . SVG Version: 6.00 Build 0)  -->
<svg version="1.1" id="Layer_1" xmlns="http://www.w3.org/2000/svg" xmlns:xlink="http://www.w3.org/1999/xlink" x="0px" y="0px"
	 viewBox="0 0 55 62" style="enable-background:new 0 0 55 62;" xml:space="preserve">
<style type="text/css">
	.st0{fill:#1A1A1A;}
	.st1{fill:url(#SVGID_1_);}
	.st2{fill:url(#SVGID_2_);}
	.st3{fill:url(#SVGID_3_);}
	.st4{fill:url(#SVGID_4_);}
	.st5{fill:url(#SVGID_5_);}
	.st6{fill:url(#SVGID_6_);}
	.st7{fill:url(#SVGID_7_);}
</style>
<g>
	<g>
		<path class="st0" d="M27.5,50.3l-16.8-9.6V21.4l16.8-9.6l16.8,9.6v19.3L27.5,50.3z M13,39.3l14.5,8.3L42,39.3V22.7l-14.5-8.3
			L13,22.7V39.3z"/>
		
			<radialGradient id="SVGID_1_" cx="27.8037" cy="31.4259" r="9.8912" gradientTransform="matrix(1.001 0 0 0.9943 -0.3328 -0.2468)" gradientUnits="userSpaceOnUse">
			<stop  offset="5.618000e-03" style="stop-color:#C4C6C8"/>
			<stop  offset="0.2978" style="stop-color:#BCBEC0"/>
			<stop  offset="0.6573" style="stop-color:#A7A9AC"/>
			<stop  offset="1" style="stop-color:#9B9DA0"/>
		</radialGradient>
		<path class="st1" d="M27.5,41.5l-9.2-5.3V25.7l9.2-5.3l9.2,5.3v10.5L27.5,41.5z M19.6,35.5l7.9,4.5l7.9-4.5v-9.1l-7.9-4.5
			l-7.9,4.5V35.5z"/>
		<g>
			
				<radialGradient id="SVGID_2_" cx="15.6379" cy="10.8238" r="7.6416" gradientTransform="matrix(1.001 0 0 0.9943 -0.3328 -0.2468)" gradientUnits="userSpaceOnUse">
				<stop  offset="5.618000e-03" style="stop-color:#C4C6C8"/>
				<stop  offset="0.2978" style="stop-color:#BCBEC0"/>
				<stop  offset="0.6573" style="stop-color:#A7A9AC"/>
				<stop  offset="1" style="stop-color:#9B9DA0"/>
			</radialGradient>
			<path class="st2" d="M8.5,16.5l15.8-9c-0.9-0.8-1.5-1.8-1.7-3L6.4,13.8C7.4,14.4,8.2,15.4,8.5,16.5z"/>
			
				<radialGradient id="SVGID_3_" cx="3.9843" cy="31.5711" r="6.1712" gradientTransform="matrix(1.001 0 0 0.9943 -0.3328 -0.2468)" gradientUnits="userSpaceOnUse">
				<stop  offset="5.618000e-03" style="stop-color:#C4C6C8"/>
				<stop  offset="0.2978" style="stop-color:#BCBEC0"/>
				<stop  offset="0.6573" style="stop-color:#A7A9AC"/>
				<stop  offset="1" style="stop-color:#9B9DA0"/>
			</radialGradient>
			<path class="st3" d="M3.7,39.3c0.6,0,1.2,0.1,1.7,0.3V22.7C4.9,22.9,4.3,23,3.7,23c-0.6,0-1.2-0.1-1.8-0.3v17
				C2.5,39.4,3.1,39.3,3.7,39.3z"/>
			
				<radialGradient id="SVGID_4_" cx="39.9695" cy="10.8238" r="7.6416" gradientTransform="matrix(1.001 0 0 0.9943 -0.3328 -0.2468)" gradientUnits="userSpaceOnUse">
				<stop  offset="5.618000e-03" style="stop-color:#C4C6C8"/>
				<stop  offset="0.2978" style="stop-color:#BCBEC0"/>
				<stop  offset="0.6573" style="stop-color:#A7A9AC"/>
				<stop  offset="1" style="stop-color:#9B9DA0"/>
			</radialGradient>
			<path class="st4" d="M30.7,7.5l15.8,9c0.4-1.2,1.1-2.1,2.1-2.8L32.4,4.5C32.3,5.7,31.6,6.8,30.7,7.5z"/>
			
				<radialGradient id="SVGID_5_" cx="51.623" cy="31.5711" r="6.1712" gradientTransform="matrix(1.001 0 0 0.9943 -0.3328 -0.2468)" gradientUnits="userSpaceOnUse">
				<stop  offset="5.618000e-03" style="stop-color:#C4C6C8"/>
				<stop  offset="0.2978" style="stop-color:#BCBEC0"/>
				<stop  offset="0.6573" style="stop-color:#A7A9AC"/>
				<stop  offset="1" style="stop-color:#9B9DA0"/>
			</radialGradient>
			<path class="st5" d="M51.3,23c-0.6,0-1.2-0.1-1.7-0.3v16.9c0.5-0.2,1.1-0.3,1.7-0.3c0.6,0,1.2,0.1,1.8,0.3v-17
				C52.5,22.9,51.9,23,51.3,23z"/>
			
				<radialGradient id="SVGID_6_" cx="15.7553" cy="52.0468" r="7.5655" gradientTransform="matrix(1.001 0 0 0.9943 -0.3328 -0.2468)" gradientUnits="userSpaceOnUse">
				<stop  offset="5.618000e-03" style="stop-color:#C4C6C8"/>
				<stop  offset="0.2978" style="stop-color:#BCBEC0"/>
				<stop  offset="0.6573" style="stop-color:#A7A9AC"/>
				<stop  offset="1" style="stop-color:#9B9DA0"/>
			</radialGradient>
			<path class="st6" d="M24.3,54.5l-15.7-9c-0.3,1.2-1,2.2-2,2.9l16,9.1C22.7,56.3,23.4,55.2,24.3,54.5z"/>
			
				<radialGradient id="SVGID_7_" cx="39.852" cy="52.0468" r="7.5655" gradientTransform="matrix(1.001 0 0 0.9943 -0.3328 -0.2468)" gradientUnits="userSpaceOnUse">
				<stop  offset="5.618000e-03" style="stop-color:#C4C6C8"/>
				<stop  offset="0.2978" style="stop-color:#BCBEC0"/>
				<stop  offset="0.6573" style="stop-color:#A7A9AC"/>
				<stop  offset="1" style="stop-color:#9B9DA0"/>
			</radialGradient>
			<path class="st7" d="M46.4,45.5l-15.7,9c0.9,0.8,1.5,1.8,1.7,3l16-9.1C47.4,47.7,46.7,46.7,46.4,45.5z"/>
		</g>
		<g>
			<g>
				<ellipse class="st0" cx="27.5" cy="3.7" rx="3.7" ry="3.7"/>
				<ellipse class="st0" cx="27.5" cy="58.3" rx="3.7" ry="3.7"/>
			</g>
			<g>
				<ellipse class="st0" cx="3.7" cy="18" rx="3.7" ry="3.7"/>
				<ellipse class="st0" cx="51.3" cy="18" rx="3.7" ry="3.7"/>
			</g>
			<g>
				<ellipse class="st0" cx="3.7" cy="44.3" rx="3.7" ry="3.7"/>
				<ellipse class="st0" cx="51.3" cy="44.3" rx="3.7" ry="3.7"/>
			</g>
		</g>
		<g>
			<g>
				<ellipse class="st0" cx="27.5" cy="21.4" rx="1.3" ry="1.3"/>
				<ellipse class="st0" cx="27.5" cy="40.6" rx="1.3" ry="1.3"/>
			</g>
			<g>
				<ellipse class="st0" cx="19.1" cy="26.4" rx="1.3" ry="1.3"/>
				<ellipse class="st0" cx="35.9" cy="26.4" rx="1.3" ry="1.3"/>
			</g>
			<g>
				<ellipse class="st0" cx="19.1" cy="35.7" rx="1.3" ry="1.3"/>
				<ellipse class="st0" cx="35.9" cy="35.7" rx="1.3" ry="1.3"/>
			</g>
		</g>
	</g>
</g>
</svg>
